# xmcd
#
# Track frame offsets: 
#        150
#        14286
#        27529
#        43851
#        62046
#
# Disc length: 969 seconds
#
# Revision: 0
# Processed by: cddbd v1.5.2PL0 Copyright (c) Steve Scherf et al.
# Submitted via: ExactAudioCopyFreeDBPlugin 1.0
#
DISCID=3e03c705
DTITLE=Josh Kumra - Good Things Come To Those Who Don't Wait (deluxe)
DYEAR=2013
DGENRE=Pop, Blues, Dance, Soul
TTITLE0=Helicopters and Planes
TTITLE1=You'll Come Running
TTITLE2=Fingertips
TTITLE3=Pretend
TTITLE4=I'll Be Home
EXTD=
EXTT0=
EXTT1=
EXTT2=
EXTT3=
EXTT4=
PLAYORDER=
